<?xml version="1.0" encoding="UTF-8" standalone="no"?>
<!-- Created with Inkscape (http://www.inkscape.org/) -->
<svg
   width="170.664mm"
   height="169.52867mm"
   viewBox="0 0 170.664 169.52867"
   version="1.1"
   id="svg5"
   xml:space="preserve"
   inkscape:export-filename="bitmap.svg"
   inkscape:export-xdpi="96"
   inkscape:export-ydpi="96"
   inkscape:version="1.2.1 (9c6d41e410, 2022-07-14)"
   sodipodi:docname="phoneIconThing.svg"
   xmlns:inkscape="http://www.inkscape.org/namespaces/inkscape"
   xmlns:sodipodi="http://sodipodi.sourceforge.net/DTD/sodipodi-0.dtd"
   xmlns:xlink="http://www.w3.org/1999/xlink"
   xmlns="http://www.w3.org/2000/svg"
   xmlns:svg="http://www.w3.org/2000/svg"><sodipodi:namedview
     id="namedview7"
     pagecolor="#616161"
     bordercolor="#000000"
     borderopacity="0.24705882"
     inkscape:showpageshadow="2"
     inkscape:pageopacity="0"
     inkscape:pagecheckerboard="true"
     inkscape:deskcolor="#d1d1d1"
     inkscape:document-units="mm"
     showgrid="false"
     inkscape:zoom="0.71624579"
     inkscape:cx="498.43225"
     inkscape:cy="626.87978"
     inkscape:window-width="1450"
     inkscape:window-height="1020"
     inkscape:window-x="192"
     inkscape:window-y="0"
     inkscape:window-maximized="0"
     inkscape:current-layer="layer1" /><defs
     id="defs2" /><g
     inkscape:label="Layer 1"
     inkscape:groupmode="layer"
     id="layer1"
     transform="translate(-19.668051,-63.735643)"><path
       id="path316"
       style="fill:#ffffff;stroke-width:0.271036"
       d="m 104.99979,63.735645 a 85.332085,84.764465 0 0 0 -85.33174,84.764335 85.332085,84.764465 0 0 0 85.33174,84.76433 85.332085,84.764465 0 0 0 85.33226,-84.76433 85.332085,84.764465 0 0 0 -85.33226,-84.764335 z M 88.05199,89.71132 c 0.707603,-0.04006 1.240169,0.193679 1.839681,0.636137 0.522609,0.385699 3.750084,5.671699 8.991699,14.726233 7.87671,13.60647 8.17141,14.17065 8.04395,15.38666 -0.181,1.72681 -0.92617,2.3754 -6.11435,5.3175 -4.642046,2.6324 -5.291588,2.87517 -6.657477,2.48926 -0.485189,-0.13708 -1.149779,-0.54457 -1.477429,-0.90537 -0.32765,-0.3608 -4.186435,-6.88822 -8.57467,-14.50558 -8.540962,-14.825928 -8.580925,-14.915865 -7.439856,-16.757633 0.367389,-0.592999 2.029662,-1.729066 5.268929,-3.600814 3.274271,-1.891985 4.940183,-2.719619 6.119523,-2.786393 z m -14.242542,10.91251 c 0.126024,0.0166 0.207833,0.0989 0.292489,0.23875 0.14419,0.23822 3.827544,6.60528 8.18503,14.14849 l 7.923031,13.71492 -0.972034,0.69143 c -1.179619,0.83931 -2.81897,3.17398 -3.469039,4.94027 -0.728929,1.98058 -0.868265,7.34007 -0.273885,10.53889 1.662048,8.94481 7.122037,18.91994 13.69012,25.01088 2.50716,2.325 4.52317,3.65526 7.32203,4.83019 2.45553,1.03081 6.57845,1.09889 8.64702,0.14315 l 1.34772,-0.6227 7.99951,13.85238 c 4.39979,7.6187 8.01641,14.0573 8.03672,14.30817 0.0473,0.58432 -4.59447,2.97631 -7.74474,3.99097 -2.81841,0.90777 -6.0392,1.1354 -8.38812,0.59273 -2.26274,-0.52277 -4.2226,-1.31325 -6.35569,-2.56367 -21.212924,-12.43502 -44.826875,-50.31882 -48.805286,-78.29754 -0.549953,-3.86761 -0.538979,-10.16784 0.0217,-12.54652 1.132512,-4.80454 4.731955,-8.7649 11.334192,-12.46953 0.667255,-0.37441 0.999188,-0.52899 1.209228,-0.50126 z m 56.905572,62.35589 c 1.632,0.0828 2.67989,1.8389 9.85004,14.25701 4.12637,7.1465 7.75256,13.47555 8.05791,14.06477 0.63243,1.22038 0.71533,2.7373 0.20981,3.8468 -0.32756,0.71892 -2.93856,2.41707 -8.34471,5.42705 -2.52986,1.40855 -3.91868,1.44058 -5.2834,0.12196 -0.97583,-0.94286 -16.41128,-27.48233 -16.71371,-28.73726 -0.24205,-1.00439 0.27664,-2.47186 1.16065,-3.28197 1.48973,-1.36519 9.06287,-5.52126 10.30893,-5.65754 0.27653,-0.0302 0.52134,-0.0526 0.75448,-0.0408 z" /></g></svg>
