<svg width="12" height="13" viewBox="0 0 12 13" fill="none" xmlns="http://www.w3.org/2000/svg">
<path fill-rule="evenodd" clip-rule="evenodd" d="M12 6.5C12 9.8135 9.3135 12.5 6 12.5C2.6865 12.5 0 9.8135 0 6.5C0 3.1865 2.6865 0.5 6 0.5C9.3135 0.5 12 3.1865 12 6.5ZM6.215 4.9295C5.6315 5.172 4.465 5.6745 2.716 6.4365C2.432 6.5495 2.283 6.66 2.2695 6.768C2.2465 6.951 2.4755 7.023 2.7865 7.1205C2.829 7.134 2.873 7.1475 2.918 7.1625C3.2245 7.262 3.6365 7.3785 3.8505 7.383C4.045 7.387 4.262 7.307 4.5015 7.143C6.1355 6.0395 6.979 5.482 7.032 5.47C7.0695 5.4615 7.1215 5.4505 7.1565 5.482C7.1915 5.513 7.188 5.572 7.1845 5.588C7.1615 5.6845 6.2645 6.519 5.7995 6.951C5.6545 7.0855 5.552 7.181 5.531 7.203C5.484 7.2515 5.436 7.298 5.39 7.3425C5.105 7.6165 4.892 7.8225 5.402 8.1585C5.647 8.32 5.843 8.4535 6.0385 8.5865C6.252 8.732 6.465 8.877 6.741 9.058C6.811 9.104 6.878 9.1515 6.9435 9.198C7.192 9.3755 7.4155 9.5345 7.6915 9.5095C7.8515 9.4945 8.0175 9.344 8.1015 8.8945C8.3 7.8315 8.691 5.5295 8.7815 4.5805C8.78701 4.50171 8.78365 4.42254 8.7715 4.3445C8.76423 4.28147 8.73353 4.22347 8.6855 4.182C8.614 4.1235 8.503 4.111 8.453 4.112C8.2275 4.116 7.8815 4.2365 6.215 4.9295Z" fill="white"/>
</svg>
